M48
; DRILL file {KiCad 9.0.1} date 2025-06-20T14:08:09-0400
; FORMAT={-:-/ absolute / metric / decimal}
; #@! TF.CreationDate,2025-06-20T14:08:09-04:00
; #@! TF.GenerationSoftware,Kicad,Pcbnew,9.0.1
; #@! TF.FileFunction,NonPlated,1,4,NPTH
FMAT,2
METRIC
; #@! TA.AperFunction,NonPlated,NPTH,ComponentDrill
T1C0.650
; #@! TA.AperFunction,NonPlated,NPTH,ComponentDrill
T2C0.991
; #@! TA.AperFunction,NonPlated,NPTH,ComponentDrill
T3C2.375
; #@! TA.AperFunction,NonPlated,NPTH,ComponentDrill
T4C3.048
; #@! TA.AperFunction,NonPlated,NPTH,ComponentDrill
T5C3.200
%
G90
G05
T1
X343.46Y-135.101
X343.46Y-140.881
T2
X232.299Y-126.785
X232.299Y-128.817
X237.379Y-127.801
T3
X234.204Y-125.261
X234.204Y-130.341
X237.379Y-125.261
X237.379Y-130.341
T4
X113.95Y-98.986
X113.95Y-111.605
X113.95Y-124.223
X113.95Y-136.841
X113.95Y-149.459
X113.95Y-162.077
X113.95Y-174.695
X113.95Y-187.314
X133.696Y-207.441
X142.096Y-207.441
X154.907Y-207.441
X163.307Y-207.441
X176.118Y-207.441
X184.518Y-207.441
X197.329Y-207.441
X205.729Y-207.441
X251.246Y-207.441
X259.646Y-207.441
X272.457Y-207.441
X280.857Y-207.441
X293.668Y-207.441
X302.068Y-207.441
X314.879Y-207.441
X323.279Y-207.441
T5
X120.5Y-86.0
X120.5Y-200.3
X218.925Y-86.0
X218.925Y-200.3
X238.05Y-86.0
X238.05Y-200.3
X336.475Y-86.0
X336.475Y-200.3
M30
