M48
; DRILL file {KiCad 9.0.1} date 2025-06-20T14:08:36-0400
; FORMAT={-:-/ absolute / metric / decimal}
; #@! TF.CreationDate,2025-06-20T14:08:36-04:00
; #@! TF.GenerationSoftware,Kicad,Pcbnew,9.0.1
; #@! TF.FileFunction,Plated,1,4,PTH
FMAT,2
METRIC
; #@! TA.AperFunction,Plated,PTH,ViaDrill
T1C0.300
; #@! TA.AperFunction,Plated,PTH,ViaDrill
T2C0.400
; #@! TA.AperFunction,Plated,PTH,ComponentDrill
T3C0.600
; #@! TA.AperFunction,Plated,PTH,ComponentDrill
T4C1.854
%
G90
G05
T1
X215.979Y-139.041
X216.279Y-142.191
X218.679Y-133.941
X218.929Y-135.541
X219.129Y-141.641
X219.729Y-140.241
X220.529Y-140.241
X220.654Y-135.49
X222.279Y-150.141
X222.359Y-149.345
X223.779Y-139.441
X223.779Y-148.441
X223.929Y-150.041
X223.929Y-150.841
X224.029Y-152.041
X225.079Y-160.741
X225.104Y-152.091
X226.629Y-129.741
X227.089Y-151.441
X227.729Y-152.091
X228.279Y-151.441
X228.298Y-150.141
X228.379Y-135.241
X228.429Y-130.391
X229.929Y-148.541
X229.929Y-149.491
X229.979Y-131.741
X230.728Y-149.522
X230.729Y-148.091
X232.179Y-125.491
X233.629Y-155.641
X236.079Y-157.391
X236.859Y-136.273
X236.979Y-152.941
X247.479Y-144.709
X332.71Y-137.991
X341.11Y-133.491
X341.16Y-142.591
T2
X137.429Y-102.891
X137.429Y-128.291
X137.429Y-153.691
X162.829Y-102.891
X162.829Y-128.291
X162.829Y-153.691
X188.229Y-102.891
X188.229Y-128.291
X213.629Y-102.891
X213.629Y-128.291
X213.629Y-179.091
X213.629Y-204.491
X226.629Y-137.996
X226.629Y-139.491
X228.129Y-143.542
X228.329Y-140.491
X231.923Y-141.441
X233.229Y-148.891
X235.329Y-147.691
X235.329Y-148.891
X235.429Y-141.691
X237.429Y-138.491
X237.829Y-136.516
X238.379Y-145.741
X239.029Y-77.491
X239.029Y-102.891
X239.029Y-179.091
X239.029Y-204.491
X241.029Y-145.041
X264.429Y-77.491
X264.429Y-102.891
X264.429Y-128.291
X264.429Y-153.691
X264.429Y-204.491
X289.829Y-102.891
X289.829Y-128.291
X289.829Y-153.691
X289.829Y-179.091
X289.829Y-204.491
X315.229Y-77.491
X315.229Y-153.691
X315.229Y-179.091
X340.629Y-102.891
X340.629Y-128.291
X340.629Y-153.691
X340.629Y-179.091
T4
X121.25Y-98.986
X121.25Y-111.605
X121.25Y-124.223
X121.25Y-136.841
X121.25Y-149.459
X121.25Y-162.077
X121.25Y-174.695
X121.25Y-187.314
X126.75Y-98.986
X126.75Y-111.605
X126.75Y-124.223
X126.75Y-136.841
X126.75Y-149.459
X126.75Y-162.077
X126.75Y-174.695
X126.75Y-187.314
X133.696Y-200.141
X137.896Y-200.141
X142.096Y-200.141
X154.907Y-200.141
X159.107Y-200.141
X163.307Y-200.141
X176.118Y-200.141
X180.318Y-200.141
X184.518Y-200.141
X197.329Y-200.141
X201.529Y-200.141
X205.729Y-200.141
X251.246Y-200.141
X255.446Y-200.141
X259.646Y-200.141
X272.457Y-200.141
X276.657Y-200.141
X280.857Y-200.141
X293.668Y-200.141
X297.868Y-200.141
X302.068Y-200.141
X314.879Y-200.141
X319.079Y-200.141
X323.279Y-200.141
T3
G00X342.38Y-133.671
M15
G01X343.48Y-133.671
M16
G05
G00X342.38Y-142.311
M15
G01X343.48Y-142.311
M16
G05
G00X346.81Y-133.671
M15
G01X347.41Y-133.671
M16
G05
G00X346.81Y-142.311
M15
G01X347.41Y-142.311
M16
G05
M30
