%TF.GenerationSoftware,KiCad,Pcbnew,9.0.1*%
%TF.CreationDate,2025-06-20T14:08:42-04:00*%
%TF.ProjectId,LED-DriverPCB,4c45442d-4472-4697-9665-725043422e6b,rev?*%
%TF.SameCoordinates,Original*%
%TF.FileFunction,Profile,NP*%
%FSLAX46Y46*%
G04 Gerber Fmt 4.6, Leading zero omitted, Abs format (unit mm)*
G04 Created by KiCad (PCBNEW 9.0.1) date 2025-06-20 14:08:42*
%MOMM*%
%LPD*%
G01*
G04 APERTURE LIST*
%TA.AperFunction,Profile*%
%ADD10C,0.050000*%
%TD*%
G04 APERTURE END LIST*
D10*
X234529000Y-214309000D02*
X339029001Y-214308999D01*
X339529000Y-213809000D02*
X339529000Y-208809000D01*
X117529000Y-208809000D02*
X117529000Y-213809000D01*
X339029000Y-71991000D02*
G75*
G02*
X339529000Y-72491000I0J-500000D01*
G01*
X112029000Y-203309000D02*
G75*
G02*
X117529000Y-208809000I0J-5500000D01*
G01*
X350029000Y-203309000D02*
X345029000Y-203309000D01*
X223029000Y-208809000D02*
X223029000Y-213809000D01*
X350529000Y-202809000D02*
X350529000Y-83491000D01*
X339529000Y-77491000D02*
X339529000Y-72491000D01*
X339529000Y-208809000D02*
G75*
G02*
X345029000Y-203309000I5500000J0D01*
G01*
X234529000Y-214309000D02*
G75*
G02*
X234029000Y-213809000I0J500000D01*
G01*
X222529000Y-71991000D02*
G75*
G02*
X223029000Y-72491000I0J-500000D01*
G01*
X118029000Y-214309000D02*
G75*
G02*
X117529000Y-213809000I0J500000D01*
G01*
X339029000Y-71991000D02*
X234529000Y-71991000D01*
X106529000Y-83491000D02*
G75*
G02*
X107029000Y-82991000I500000J0D01*
G01*
X117529000Y-77491000D02*
X117529000Y-72491000D01*
X117529000Y-77491000D02*
G75*
G02*
X112029000Y-82991000I-5500000J0D01*
G01*
X234029000Y-77491000D02*
G75*
G02*
X223029000Y-77491000I-5500000J0D01*
G01*
X234029000Y-208809000D02*
X234029000Y-213809000D01*
X350029000Y-82991000D02*
X345029000Y-82991000D01*
X350029000Y-82991000D02*
G75*
G02*
X350529000Y-83491000I0J-500000D01*
G01*
X112029000Y-203309000D02*
X107029000Y-203309000D01*
X112029000Y-82991000D02*
X107029000Y-82991000D01*
X222529000Y-71991000D02*
X118029000Y-71991000D01*
X223029000Y-208809000D02*
G75*
G02*
X234029000Y-208809000I5500000J0D01*
G01*
X339529000Y-213809000D02*
G75*
G02*
X339029001Y-214309000I-500000J0D01*
G01*
X117529000Y-72491000D02*
G75*
G02*
X118029000Y-71991000I500000J0D01*
G01*
X345029000Y-82991000D02*
G75*
G02*
X339529000Y-77491000I0J5500000D01*
G01*
X223029000Y-77491000D02*
X223029000Y-72491000D01*
X106529000Y-83491000D02*
X106529000Y-202809000D01*
X223029000Y-213809000D02*
G75*
G02*
X222529000Y-214309000I-500000J0D01*
G01*
X234029000Y-72491000D02*
X234029000Y-77491000D01*
X234029000Y-72491000D02*
G75*
G02*
X234529000Y-71991000I500000J0D01*
G01*
X222529000Y-214309000D02*
X118029000Y-214309000D01*
X107029000Y-203309000D02*
G75*
G02*
X106529000Y-202809000I0J500000D01*
G01*
X350529000Y-202809000D02*
G75*
G02*
X350029000Y-203309000I-500000J0D01*
G01*
M02*
