%TF.GenerationSoftware,KiCad,Pcbnew,9.0.1*%
%TF.CreationDate,2025-07-28T14:50:10-04:00*%
%TF.ProjectId,LED-DriverPCB,4c45442d-4472-4697-9665-725043422e6b,rev?*%
%TF.SameCoordinates,Original*%
%TF.FileFunction,Soldermask,Top*%
%TF.FilePolarity,Negative*%
%FSLAX46Y46*%
G04 Gerber Fmt 4.6, Leading zero omitted, Abs format (unit mm)*
G04 Created by KiCad (PCBNEW 9.0.1) date 2025-07-28 14:50:10*
%MOMM*%
%LPD*%
G01*
G04 APERTURE LIST*
G04 Aperture macros list*
%AMRoundRect*
0 Rectangle with rounded corners*
0 $1 Rounding radius*
0 $2 $3 $4 $5 $6 $7 $8 $9 X,Y pos of 4 corners*
0 Add a 4 corners polygon primitive as box body*
4,1,4,$2,$3,$4,$5,$6,$7,$8,$9,$2,$3,0*
0 Add four circle primitives for the rounded corners*
1,1,$1+$1,$2,$3*
1,1,$1+$1,$4,$5*
1,1,$1+$1,$6,$7*
1,1,$1+$1,$8,$9*
0 Add four rect primitives between the rounded corners*
20,1,$1+$1,$2,$3,$4,$5,0*
20,1,$1+$1,$4,$5,$6,$7,0*
20,1,$1+$1,$6,$7,$8,$9,0*
20,1,$1+$1,$8,$9,$2,$3,0*%
G04 Aperture macros list end*
%ADD10RoundRect,0.225000X0.225000X0.250000X-0.225000X0.250000X-0.225000X-0.250000X0.225000X-0.250000X0*%
%ADD11C,3.200000*%
%ADD12C,2.362200*%
%ADD13O,1.600000X1.000000*%
%ADD14O,2.100000X1.000000*%
%ADD15R,1.450000X0.600000*%
%ADD16R,1.450000X0.300000*%
%ADD17C,0.650000*%
%ADD18C,0.787400*%
%ADD19C,0.990600*%
%ADD20C,2.374900*%
%ADD21RoundRect,0.200000X0.200000X0.275000X-0.200000X0.275000X-0.200000X-0.275000X0.200000X-0.275000X0*%
%ADD22RoundRect,0.200000X-0.200000X-0.275000X0.200000X-0.275000X0.200000X0.275000X-0.200000X0.275000X0*%
%ADD23R,1.000000X1.000000*%
%ADD24RoundRect,0.100000X-0.637500X-0.100000X0.637500X-0.100000X0.637500X0.100000X-0.637500X0.100000X0*%
%ADD25RoundRect,0.140000X0.170000X-0.140000X0.170000X0.140000X-0.170000X0.140000X-0.170000X-0.140000X0*%
%ADD26RoundRect,0.250000X-0.250000X-0.475000X0.250000X-0.475000X0.250000X0.475000X-0.250000X0.475000X0*%
%ADD27RoundRect,0.250000X0.475000X-0.250000X0.475000X0.250000X-0.475000X0.250000X-0.475000X-0.250000X0*%
%ADD28RoundRect,0.375000X-0.625000X-0.375000X0.625000X-0.375000X0.625000X0.375000X-0.625000X0.375000X0*%
%ADD29RoundRect,0.500000X-0.500000X-1.400000X0.500000X-1.400000X0.500000X1.400000X-0.500000X1.400000X0*%
%ADD30RoundRect,0.135000X-0.135000X-0.185000X0.135000X-0.185000X0.135000X0.185000X-0.135000X0.185000X0*%
%ADD31RoundRect,0.200000X-0.275000X0.200000X-0.275000X-0.200000X0.275000X-0.200000X0.275000X0.200000X0*%
%ADD32RoundRect,0.225000X-0.225000X-0.250000X0.225000X-0.250000X0.225000X0.250000X-0.225000X0.250000X0*%
%ADD33RoundRect,0.225000X-0.250000X0.225000X-0.250000X-0.225000X0.250000X-0.225000X0.250000X0.225000X0*%
%ADD34RoundRect,0.075000X-0.700000X-0.075000X0.700000X-0.075000X0.700000X0.075000X-0.700000X0.075000X0*%
%ADD35RoundRect,0.075000X-0.075000X-0.700000X0.075000X-0.700000X0.075000X0.700000X-0.075000X0.700000X0*%
%ADD36RoundRect,0.225000X0.250000X-0.225000X0.250000X0.225000X-0.250000X0.225000X-0.250000X-0.225000X0*%
%ADD37RoundRect,0.250000X-0.475000X0.250000X-0.475000X-0.250000X0.475000X-0.250000X0.475000X0.250000X0*%
%ADD38R,1.200000X1.400000*%
%ADD39RoundRect,0.218750X-0.218750X-0.256250X0.218750X-0.256250X0.218750X0.256250X-0.218750X0.256250X0*%
%ADD40RoundRect,0.200000X0.275000X-0.200000X0.275000X0.200000X-0.275000X0.200000X-0.275000X-0.200000X0*%
%ADD41RoundRect,0.140000X-0.170000X0.140000X-0.170000X-0.140000X0.170000X-0.140000X0.170000X0.140000X0*%
%ADD42RoundRect,0.150000X-0.512500X-0.150000X0.512500X-0.150000X0.512500X0.150000X-0.512500X0.150000X0*%
G04 APERTURE END LIST*
D10*
%TO.C,C16*%
X230854000Y-151959000D03*
X232404000Y-151959000D03*
%TD*%
D11*
%TO.C,H1*%
X120500000Y-86000000D03*
%TD*%
%TO.C,H2*%
X218925000Y-86000000D03*
%TD*%
%TO.C,H3*%
X238050000Y-86000000D03*
%TD*%
%TO.C,H4*%
X336475000Y-86000000D03*
%TD*%
%TO.C,H5*%
X120500000Y-200300000D03*
%TD*%
%TO.C,H6*%
X218925000Y-200300000D03*
%TD*%
%TO.C,H7*%
X238050000Y-200300000D03*
%TD*%
%TO.C,H8*%
X336475000Y-200300000D03*
%TD*%
D12*
%TO.C,J1*%
X314878601Y-200140900D03*
X319078600Y-200140900D03*
X323278599Y-200140900D03*
%TD*%
%TO.C,J2*%
X293667601Y-200140900D03*
X297867600Y-200140900D03*
X302067599Y-200140900D03*
%TD*%
%TO.C,J3*%
X272456601Y-200140900D03*
X276656600Y-200140900D03*
X280856599Y-200140900D03*
%TD*%
%TO.C,J4*%
X251245601Y-200140900D03*
X255445600Y-200140900D03*
X259645599Y-200140900D03*
%TD*%
%TO.C,J5*%
X197329101Y-200140900D03*
X201529100Y-200140900D03*
X205729099Y-200140900D03*
%TD*%
%TO.C,J6*%
X176118101Y-200140900D03*
X180318100Y-200140900D03*
X184518099Y-200140900D03*
%TD*%
%TO.C,J7*%
X154907101Y-200140900D03*
X159107100Y-200140900D03*
X163307099Y-200140900D03*
%TD*%
%TO.C,J8*%
X133696101Y-200140900D03*
X137896100Y-200140900D03*
X142096099Y-200140900D03*
%TD*%
D13*
%TO.C,J9*%
X347110251Y-133671000D03*
D14*
X342930251Y-133671000D03*
D13*
X347110251Y-142311000D03*
D14*
X342930251Y-142311000D03*
D15*
X342015251Y-141241000D03*
X342015251Y-140441000D03*
D16*
X342015251Y-139741000D03*
X342015251Y-138741000D03*
X342015251Y-137241000D03*
X342015251Y-136241000D03*
D15*
X342015251Y-135541000D03*
X342015251Y-134741000D03*
X342015251Y-134741000D03*
X342015251Y-135541000D03*
D16*
X342015251Y-136741000D03*
X342015251Y-137741000D03*
X342015251Y-138241000D03*
X342015251Y-139241000D03*
D15*
X342015251Y-140441000D03*
X342015251Y-141241000D03*
D17*
X343460251Y-135101000D03*
X343460251Y-140881000D03*
%TD*%
D12*
%TO.C,J12*%
X126749999Y-98986500D03*
X121250000Y-98986500D03*
%TD*%
%TO.C,J13*%
X126749999Y-111604500D03*
X121250000Y-111604500D03*
%TD*%
%TO.C,J14*%
X126749999Y-124223100D03*
X121250000Y-124223100D03*
%TD*%
%TO.C,J15*%
X126749999Y-136841100D03*
X121250000Y-136841100D03*
%TD*%
%TO.C,J16*%
X126749999Y-149459100D03*
X121250000Y-149459100D03*
%TD*%
%TO.C,J17*%
X126749999Y-162077100D03*
X121250000Y-162077100D03*
%TD*%
%TO.C,J18*%
X126749999Y-174695500D03*
X121250000Y-174695500D03*
%TD*%
%TO.C,J19*%
X126749999Y-187313500D03*
X121250000Y-187313500D03*
%TD*%
D18*
%TO.C,J20*%
X233569000Y-128436000D03*
X233569000Y-127166000D03*
X234839000Y-128436000D03*
X234839000Y-127166000D03*
X236109000Y-128436000D03*
X236109000Y-127166000D03*
D19*
X232299000Y-126785000D03*
X232299000Y-128817000D03*
D20*
X234204000Y-125261000D03*
X234204000Y-130341000D03*
X237379000Y-125261000D03*
D19*
X237379000Y-127801000D03*
D20*
X237379000Y-130341000D03*
%TD*%
D21*
%TO.C,R1*%
X227204000Y-131741000D03*
X228854000Y-131741000D03*
%TD*%
%TO.C,R4*%
X220379000Y-152109000D03*
X222029000Y-152109000D03*
%TD*%
D22*
%TO.C,R7*%
X235729000Y-152109000D03*
X234079000Y-152109000D03*
%TD*%
%TO.C,R8*%
X235704000Y-153959000D03*
X234054000Y-153959000D03*
%TD*%
D21*
%TO.C,R9*%
X234054000Y-155809000D03*
X235704000Y-155809000D03*
%TD*%
D22*
%TO.C,R10*%
X235704000Y-157659000D03*
X234054000Y-157659000D03*
%TD*%
%TO.C,R11*%
X235704000Y-159509000D03*
X234054000Y-159509000D03*
%TD*%
D21*
%TO.C,R12*%
X220354000Y-153959000D03*
X222004000Y-153959000D03*
%TD*%
%TO.C,R13*%
X220354000Y-155809000D03*
X222004000Y-155809000D03*
%TD*%
%TO.C,R14*%
X220354000Y-157659000D03*
X222004000Y-157659000D03*
%TD*%
%TO.C,R15*%
X220354000Y-159509000D03*
X222004000Y-159509000D03*
%TD*%
D23*
%TO.C,TP8*%
X258229000Y-153959000D03*
%TD*%
%TO.C,TP7*%
X254862333Y-155809000D03*
%TD*%
%TO.C,TP6*%
X251495667Y-157659000D03*
%TD*%
%TO.C,TP5*%
X248104000Y-159509000D03*
%TD*%
%TO.C,TP4*%
X207229000Y-159509000D03*
%TD*%
%TO.C,TP3*%
X210445667Y-157659000D03*
%TD*%
%TO.C,TP2*%
X213662333Y-155809000D03*
%TD*%
%TO.C,TP1*%
X216879000Y-153959000D03*
%TD*%
D24*
%TO.C,U1*%
X230891500Y-153484000D03*
X230891500Y-154134000D03*
X230891500Y-154784000D03*
X230891500Y-155434000D03*
X230891500Y-156084000D03*
X230891500Y-156734000D03*
X230891500Y-157384000D03*
X230891500Y-158034000D03*
X230891500Y-158684000D03*
X230891500Y-159334000D03*
X225166500Y-159334000D03*
X225166500Y-158684000D03*
X225166500Y-158034000D03*
X225166500Y-157384000D03*
X225166500Y-156734000D03*
X225166500Y-156084000D03*
X225166500Y-155434000D03*
X225166500Y-154784000D03*
X225166500Y-154134000D03*
X225166500Y-153484000D03*
%TD*%
D25*
%TO.C,C1*%
X220579000Y-137341000D03*
X220579000Y-136381000D03*
%TD*%
D10*
%TO.C,C5*%
X221354000Y-133941000D03*
X219804000Y-133941000D03*
%TD*%
D26*
%TO.C,C9*%
X223579000Y-129741000D03*
X225479000Y-129741000D03*
%TD*%
D27*
%TO.C,C12*%
X238379000Y-148891000D03*
X238379000Y-146991000D03*
%TD*%
D28*
%TO.C,U3*%
X241029000Y-146891000D03*
X241029000Y-149191000D03*
D29*
X247329000Y-149191000D03*
D28*
X241029000Y-151491000D03*
%TD*%
D30*
%TO.C,R6*%
X245669000Y-144709000D03*
X246689000Y-144709000D03*
%TD*%
D31*
%TO.C,R3*%
X339710251Y-134526000D03*
X339710251Y-136176000D03*
%TD*%
D32*
%TO.C,C7*%
X223754000Y-131741000D03*
X225304000Y-131741000D03*
%TD*%
D33*
%TO.C,C6*%
X235829000Y-134716000D03*
X235829000Y-136266000D03*
%TD*%
D34*
%TO.C,U5*%
X222354000Y-135741000D03*
X222354000Y-136241000D03*
X222354000Y-136741000D03*
X222354000Y-137241000D03*
X222354000Y-137741000D03*
X222354000Y-138241000D03*
X222354000Y-138741000D03*
X222354000Y-139241000D03*
X222354000Y-139741000D03*
X222354000Y-140241000D03*
X222354000Y-140741000D03*
X222354000Y-141241000D03*
X222354000Y-141741000D03*
X222354000Y-142241000D03*
X222354000Y-142741000D03*
X222354000Y-143241000D03*
D35*
X224279000Y-145166000D03*
X224779000Y-145166000D03*
X225279000Y-145166000D03*
X225779000Y-145166000D03*
X226279000Y-145166000D03*
X226779000Y-145166000D03*
X227279000Y-145166000D03*
X227779000Y-145166000D03*
X228279000Y-145166000D03*
X228779000Y-145166000D03*
X229279000Y-145166000D03*
X229779000Y-145166000D03*
X230279000Y-145166000D03*
X230779000Y-145166000D03*
X231279000Y-145166000D03*
X231779000Y-145166000D03*
D34*
X233704000Y-143241000D03*
X233704000Y-142741000D03*
X233704000Y-142241000D03*
X233704000Y-141741000D03*
X233704000Y-141241000D03*
X233704000Y-140741000D03*
X233704000Y-140241000D03*
X233704000Y-139741000D03*
X233704000Y-139241000D03*
X233704000Y-138741000D03*
X233704000Y-138241000D03*
X233704000Y-137741000D03*
X233704000Y-137241000D03*
X233704000Y-136741000D03*
X233704000Y-136241000D03*
X233704000Y-135741000D03*
D35*
X231779000Y-133816000D03*
X231279000Y-133816000D03*
X230779000Y-133816000D03*
X230279000Y-133816000D03*
X229779000Y-133816000D03*
X229279000Y-133816000D03*
X228779000Y-133816000D03*
X228279000Y-133816000D03*
X227779000Y-133816000D03*
X227279000Y-133816000D03*
X226779000Y-133816000D03*
X226279000Y-133816000D03*
X225779000Y-133816000D03*
X225279000Y-133816000D03*
X224779000Y-133816000D03*
X224279000Y-133816000D03*
%TD*%
D36*
%TO.C,C8*%
X219329000Y-142766000D03*
X219329000Y-141216000D03*
%TD*%
D37*
%TO.C,C11*%
X238379000Y-151041000D03*
X238379000Y-152941000D03*
%TD*%
D38*
%TO.C,X1*%
X217229000Y-136841000D03*
X217229000Y-139041000D03*
X218929000Y-139041000D03*
X218929000Y-136841000D03*
%TD*%
D10*
%TO.C,C10*%
X217029000Y-141041000D03*
X215479000Y-141041000D03*
%TD*%
D39*
%TO.C,D1*%
X245691500Y-143109000D03*
X247266500Y-143109000D03*
%TD*%
D10*
%TO.C,C3*%
X232304000Y-147191000D03*
X230754000Y-147191000D03*
%TD*%
D40*
%TO.C,R2*%
X339710251Y-141051000D03*
X339710251Y-139401000D03*
%TD*%
D41*
%TO.C,C2*%
X220579000Y-138561000D03*
X220579000Y-139521000D03*
%TD*%
D42*
%TO.C,U4*%
X333922751Y-137041000D03*
X333922751Y-137991000D03*
X333922751Y-138941000D03*
X336197751Y-138941000D03*
X336197751Y-137991000D03*
X336197751Y-137041000D03*
%TD*%
D10*
%TO.C,C4*%
X225804000Y-147191000D03*
X224254000Y-147191000D03*
%TD*%
D31*
%TO.C,R5*%
X239079000Y-134666000D03*
X239079000Y-136316000D03*
%TD*%
M02*
